<?xml version="1.0" standalone="no"?>
<!DOCTYPE svg PUBLIC "-//W3C//DTD SVG 20010904//EN"
 "http://www.w3.org/TR/2001/REC-SVG-20010904/DTD/svg10.dtd">
<svg version="1.0" xmlns="http://www.w3.org/2000/svg"
 width="981.000000pt" height="981.000000pt" viewBox="0 0 981.000000 981.000000"
 preserveAspectRatio="xMidYMid meet">
<metadata>
Created by potrace 1.14, written by Peter Selinger 2001-2017
</metadata>
<g transform="translate(0.000000,981.000000) scale(0.100000,-0.100000)"
fill="#000000" stroke="none">
<path d="M4873 6551 c-16 -16 -148 -231 -293 -478 -391 -665 -685 -1165 -755
-1283 -375 -631 -578 -986 -582 -1021 -5 -32 -1 -45 17 -64 l23 -25 462 0 461
0 52 26 c95 47 123 86 382 529 157 269 259 434 285 459 53 52 133 88 196 88
63 0 89 -21 89 -71 0 -38 -6 -50 -364 -659 -122 -207 -149 -260 -150 -294 0
-31 5 -44 23 -59 22 -18 46 -19 483 -19 l460 0 52 26 c71 35 132 98 151 153
24 76 28 123 13 166 -8 22 -101 185 -206 362 -106 176 -192 331 -192 342 0 11
12 28 27 38 24 16 66 18 423 23 390 5 396 5 440 28 25 13 62 40 83 60 35 33
133 188 230 363 44 78 49 135 16 165 -20 18 -43 19 -478 19 l-456 0 -57 -28
c-79 -39 -124 -88 -206 -225 -40 -66 -86 -130 -104 -144 -83 -63 -174 -90
-228 -68 -58 24 -54 90 13 201 126 210 245 418 257 449 8 19 15 64 15 100 0
73 6 61 -338 630 -141 233 -142 235 -178 238 -29 2 -42 -3 -66 -27z"/>
<path d="M1495 5561 c-41 -25 -54 -41 -115 -146 -29 -49 -127 -215 -217 -368
-194 -330 -189 -318 -174 -346 l12 -21 623 0 623 0 38 28 c53 38 257 383 253
427 l-3 30 -245 3 c-167 2 -254 -1 -273 -9 -40 -17 -76 -62 -152 -195 -95
-165 -124 -194 -198 -194 -40 0 -51 17 -37 55 17 45 341 589 367 617 32 33 72
51 109 46 43 -5 43 -42 0 -116 -38 -64 -44 -90 -24 -110 19 -19 480 -17 516 2
40 21 65 51 127 154 43 71 55 101 53 125 l-3 32 -625 3 c-594 2 -626 1 -655
-17z"/>
<path d="M2885 5561 c-16 -10 -37 -27 -46 -37 -32 -38 -129 -210 -129 -230 0
-42 13 -44 265 -44 l241 0 41 26 c26 17 54 50 78 90 54 93 105 131 166 122 43
-6 36 -47 -25 -150 -62 -106 -98 -144 -147 -158 -19 -6 -171 -10 -342 -10
-329 0 -337 -1 -384 -52 -23 -25 -233 -376 -233 -391 0 -4 5 -17 10 -28 10
-18 28 -19 634 -19 l623 0 34 23 c37 24 58 58 333 525 137 232 167 289 164
315 l-3 32 -625 3 c-594 2 -626 1 -655 -17z m386 -481 c30 -17 23 -52 -32
-147 -77 -131 -112 -163 -182 -163 -63 0 -58 32 24 166 67 109 93 133 167 153
2 1 12 -4 23 -9z"/>
<path d="M6949 5557 c-34 -23 -58 -60 -272 -422 -204 -346 -229 -392 -225
-422 l3 -28 620 -3 c445 -2 628 1 648 9 15 6 40 26 55 44 39 44 132 208 132
232 0 42 -16 44 -273 41 -284 -3 -273 0 -344 -109 -61 -93 -106 -129 -159
-129 -65 0 -66 23 -7 126 63 113 114 171 161 184 22 6 165 10 345 10 334 0
337 0 388 57 27 29 203 325 219 369 7 17 6 32 0 45 -10 18 -28 19 -634 19
l-623 0 -34 -23z m656 -87 c8 -24 -93 -205 -139 -251 -57 -56 -136 -57 -136
-3 0 23 83 174 119 218 46 54 143 77 156 36z"/>
<path d="M8378 5557 c-21 -12 -44 -31 -52 -42 -11 -17 -111 -186 -403 -681
-54 -93 -62 -121 -41 -142 19 -19 480 -17 516 2 44 23 74 63 164 216 313 534
312 532 349 557 27 18 48 23 75 21 64 -5 58 -31 -54 -218 -232 -388 -312 -529
-312 -547 0 -41 14 -43 263 -43 313 0 282 -17 431 235 292 492 356 604 356
622 0 43 5 43 -640 43 l-615 0 -37 -23z"/>
<path d="M923 4564 c-17 -9 -38 -23 -46 -32 -7 -10 -75 -120 -149 -247 -74
-126 -199 -338 -277 -469 -114 -195 -141 -247 -141 -277 0 -31 22 -76 112
-228 l113 -190 51 -1 50 0 118 203 c153 261 184 307 226 332 33 19 56 20 365
25 345 5 349 6 393 52 28 31 461 764 468 795 14 55 33 53 -635 53 -539 0 -620
-2 -648 -16z m640 -109 c-1 -19 -66 -140 -180 -332 -195 -332 -216 -357 -291
-351 -58 5 -54 30 31 176 193 330 280 478 291 491 24 31 71 51 111 49 38 -3
40 -5 38 -33z"/>
<path d="M2306 4557 c-30 -17 -54 -47 -103 -127 -65 -108 -80 -162 -47 -174 9
-3 119 -6 245 -6 290 0 291 0 373 137 44 74 89 106 143 101 57 -5 55 -31 -12
-146 -64 -110 -98 -146 -152 -161 -23 -7 -162 -11 -349 -11 l-311 0 -38 -27
c-53 -39 -257 -384 -253 -428 l3 -30 625 -3 626 -2 41 27 c31 20 56 53 105
137 36 61 94 161 130 221 36 61 108 184 162 274 53 89 99 174 102 187 14 56
35 54 -635 54 l-616 0 -39 -23z m412 -501 c2 -10 -25 -67 -60 -128 -72 -128
-110 -161 -174 -156 -59 5 -56 31 16 152 68 116 83 132 136 151 43 14 77 6 82
-19z"/>
<path d="M6365 4561 c-16 -10 -37 -27 -46 -37 -22 -26 -448 -749 -459 -780 -7
-17 -6 -32 0 -45 10 -18 28 -19 631 -19 667 0 648 -1 695 52 26 30 120 186
128 215 4 12 2 31 -4 43 -10 19 -19 20 -253 20 l-243 0 -41 -26 c-25 -17 -54
-50 -77 -89 -54 -92 -96 -125 -160 -125 -26 0 -36 5 -41 20 -7 21 6 49 76 167
80 133 61 127 459 133 227 3 341 9 355 17 36 20 61 56 164 231 82 138 102 179
99 205 l-3 32 -625 3 c-594 2 -626 1 -655 -17z m645 -100 c0 -33 -95 -203
-134 -240 -28 -27 -91 -50 -117 -44 -43 12 -25 69 63 203 51 77 96 110 149
110 36 0 39 -2 39 -29z"/>
<path d="M7791 4563 c-44 -22 -44 -22 -297 -453 -171 -290 -214 -371 -212
-395 l3 -30 245 -3 c261 -3 279 0 323 46 14 15 114 178 222 362 109 184 205
343 214 354 41 47 134 64 146 27 8 -25 2 -36 -219 -411 -147 -248 -186 -321
-184 -345 l3 -30 248 -3 c236 -2 250 -1 286 19 20 11 43 30 51 42 78 124 452
766 456 784 14 55 33 53 -635 53 -556 0 -619 -2 -650 -17z"/>
</g>
</svg>
